<svg height="116" viewBox="0 0 66 116" width="66" xmlns="http://www.w3.org/2000/svg" xmlns:xlink="http://www.w3.org/1999/xlink"><defs><path id="a" d="m83.718467 100h-21.0966454v-44.8360976h-11.6218216v-20.5912187h11.6214822v-11.5626547c0-10.6151401 6.5109081-23.010029 24.8683157-23.010029 6.4715385 0 11.2223564.61863665 11.4209011.64529307l1.947774.2582557-.46904 19.26982183-2.1463193-.0200789c-.0044121 0-4.8271813-.0467353-10.0881063-.0467353-3.9152333 0-4.434504.9855952-4.434504 4.9058198v9.564808h17.2794966l-.957427 20.5912186h-16.3200333v44.8315972zm-17.112334-5h12.3533744v-44.7843536h16.4959044l.5445882-11.6809955h-17.0404926v-13.9992817c0-4.6227404 1.043088-9.3454189 8.7835599-9.3454189 3.1102864 0 6.0657024.0155613 7.9668472.0311226l.2636525-10.82097486c-1.9231723-.17566967-5.1225855-.40009804-8.8947142-.40009804-15.0952929 0-20.475092 9.5764175-20.475092 18.5397202v15.9949307h-11.6037608v11.6809955h11.6040997v44.7843536z"/><filter id="b" height="128%" width="156%" x="-28%"><feOffset dx="0" dy="4" in="SourceAlpha" result="shadowOffsetOuter1"/><feGaussianBlur in="shadowOffsetOuter1" result="shadowBlurOuter1" stdDeviation="4"/><feColorMatrix in="shadowBlurOuter1" type="matrix" values="0 0 0 0 0   0 0 0 0 0   0 0 0 0 0  0 0 0 0.5 0"/></filter></defs><g fill="none" transform="translate(-43 4)"><use fill="#000" filter="url(#b)" xlink:href="#a"/><use fill="#fff" fill-rule="evenodd" xlink:href="#a"/></g></svg>