<svg height="99" viewBox="0 0 131 99" width="131" xmlns="http://www.w3.org/2000/svg" xmlns:xlink="http://www.w3.org/1999/xlink"><defs><path id="a" d="m60.2552723 83c-.0024057 0 0 0 0 0-13.077702 0-27.3152927-.4167148-42.3144577-1.2321168-8.86120594-.4902119-15.73496407-7.3816067-16.71339461-16.7618496-1.63655999-15.6701402-1.63655999-31.4893546 0-47.0190875.97636852-9.30223896 7.84084754-16.19363377 16.69346171-16.75526269 25.868439-1.64224455 52.4857364-1.64224455 79.1514915 0 8.9564028.54810822 15.6665738 7.276908 16.7023968 16.74624889 1.632093 14.9927186 1.634498 30.8098529.002062 47.0215143-.943032 9.3736559-7.646673 16.1111228-16.6800582 16.7642764-11.3682838.8195622-23.7637994 1.236277-36.8415015 1.236277zm-3.5566761-79c-13.0155617 0-26.1172511.4137831-38.9409988 1.22611377-6.7546686.42728732-11.80051068 5.55681273-12.5567865 12.76010123-1.6010812 15.1991709-1.6010812 30.6833153 0 46.0272237.75627582 7.2614606 5.7955983 12.3885621 12.5392864 12.7625251 14.8966435.8099068 29.0325504 1.2240362 42.0086513 1.2240362 12.9537969 0 25.2240633-.4117055 36.4710926-1.2216124 6.8054528-.4941158 11.8622758-5.6191398 12.5790908-12.7559461 1.601081-15.8802682 1.601081-31.3644127.002058-46.0272237-.787158-7.2257955-5.835059-12.3573985-12.556786-12.76910403-13.2211014-.81440824-26.5279872-1.22611377-39.5456078-1.22611377zm-9.6985962 22 29 15.1016915-29 14.8983085zm4 7v16l16-7.9617455z"/><filter id="b" height="133.7%" width="124.3%" x="-12.2%" y="-12%"><feOffset dx="0" dy="4" in="SourceAlpha" result="shadowOffsetOuter1"/><feGaussianBlur in="shadowOffsetOuter1" result="shadowBlurOuter1" stdDeviation="4"/><feColorMatrix in="shadowBlurOuter1" type="matrix" values="0 0 0 0 0   0 0 0 0 0   0 0 0 0 0  0 0 0 0.5 0"/></filter></defs><g fill="none" transform="translate(8 4)"><use fill="#000" filter="url(#b)" xlink:href="#a"/><use fill="#fff" fill-rule="evenodd" xlink:href="#a"/></g></svg>