<svg height="104" viewBox="0 0 127 104" width="127" xmlns="http://www.w3.org/2000/svg" xmlns:xlink="http://www.w3.org/1999/xlink"><defs><path id="a" d="m58.2257277 89c-10.9598264 0-21.8176238-3.0447071-31.3960847-8.8033194l-6.829643-4.104603 7.958255.134648c.2577224.0129661.6727946.0342439 1.3263759.0342439 3.0293973 0 12.6800735-.4893873 22.5755528-6.0937363-7.4385039-2.2198634-13.5850832-7.9911094-16.1162615-15.5466906l-1.2538293-3.7412196 3.4149871.891004c-5.4734535-4.219968-9.0544033-10.7070094-9.446287-17.9374407l-.1874947-3.4612847 3.1658776 1.3867081c.5770596.2543351 1.1643884.4787485 1.7606612.6729076-4.4962286-6.3161548-7.2172204-16.0763062-1.5433529-26.44353715l1.5625662-2.85686483 1.9862511 2.57892476c9.5165148 12.34805262 23.6273119 19.87770172 39.0154579 20.91166542-.0937473-.9594917-.1596686-1.8418517-.1596686-2.1174645 0-11.4613706 8.6903456-23.31571397 23.231453-23.31571397 6.1038462 0 11.9797842 2.43363791 16.3080622 6.71777152 5.801404-1.36742523 11.345416-4.76254959 11.405044-4.79912065l5.028567-3.1068779-1.899129 5.612993c-.911303 2.68797301-2.299294 5.1644988-4.079168 7.3268459.970931-.3185007 1.924636-.6838788 2.906167-1.1130901l6.039913-2.96159105-2.537804 5.47003335c-2.094905 4.5191858-5.588401 8.2477718-9.92728 10.632205.953705 14.958894-5.175648 31.6485965-16.201396 43.9048891-8.183845 9.1002099-22.7587411 19.9757787-45.7195524 20.1233928zm-23.098034-9.6637237c7.0652313 3.0643067 14.6432005 4.6637237 22.2722786 4.6637237l.3623787-.0019881c21.310112-.136184 34.8153971-10.2174482 42.38941-18.6502558 10.561741-11.7572226 16.287918-27.8329042 14.939962-41.9556204l-.142116-1.4990185 1.3562-.6345315c2.150861-1.0072981 4.077173-2.4062495 5.694193-4.1077217-1.809586.4599111-3.740184.8028563-5.965565 1.0732363l-1.625264.1981462-1.267171-3.228324 1.474904-1.141494c2.06612-1.2160473 3.867462-2.8002223 5.323242-4.65510864-2.303529.98609174-5.022524 1.95064594-7.741188 2.45959654l-1.161327.2173643-.794661-.8774096c-3.573008-3.93972824-8.656862-6.1968711-13.9547142-6.1968711-11.8206691 0-18.8859004 9.648855-18.8859004 18.9782904 0 .5642857.2796152 3.1325644.3791952 3.7926097l.9621667 2.7491947-3.0599406-.0659383c-16.4023366-.3555364-31.6621416-7.5789237-42.3745714-19.9408564-4.2384134 11.1843217 2.8779268 20.1197844 6.276835 22.7964139l4.9694358 3.9162024-6.3131059-.1106702c-1.9770909-.0341288-3.9119757-.3045088-5.7875083-.8071638 1.6677996 7.4745491 7.5463147 13.479901 15.1836362 15.1280261l8.3601006 1.8058469-8.2308445 2.32772c-1.4346769.4045759-3.0622487.6090177-4.8378716.6090177-.8306024 0-1.6252637-.044732-2.3585942-.1129897 3.3102094 5.8562453 9.4746047 9.7916659 16.2941835 10.1259961l5.9589705.2939057-4.8055576 3.5490689c-8.2371094 6.0881889-16.7815318 8.4328077-22.8911911 9.3016022z"/><filter id="b" height="131.5%" width="124.8%" x="-12.4%" y="-11.2%"><feOffset dx="0" dy="4" in="SourceAlpha" result="shadowOffsetOuter1"/><feGaussianBlur in="shadowOffsetOuter1" result="shadowBlurOuter1" stdDeviation="4"/><feColorMatrix in="shadowBlurOuter1" type="matrix" values="0 0 0 0 0   0 0 0 0 0   0 0 0 0 0  0 0 0 0.5 0"/></filter></defs><g fill="none" transform="translate(-13 3)"><use fill="#000" filter="url(#b)" xlink:href="#a"/><use fill="#fff" fill-rule="evenodd" xlink:href="#a"/></g></svg>