<svg height="50" viewBox="0 0 62 50" width="62" xmlns="http://www.w3.org/2000/svg"><g fill="none" transform=""><path d="m30.7340844 4.68571656c-.9584147-2.39088831-3.2930538-4.97303036-7.6653675-4.61835539-5.5698174.60505925-7.3056505 5.93872094-6.4638538 9.12072394-2.2183461-1.5010061-5.9904447-2.16108059-9.28295672.65704214-4.25103516 4.25815725-1.97730631 10.01667085.35971715 11.39800805-2.57557045-.2383633-6.64604254 1.5006811-7.5465818 6.0496178-.95798128 5.6479415 3.35092943 8.9405165 7.5465818 8.9405165h46.52598277c4.8517921 0 7.5437639-4.194045 7.2417056-8.1494019-.4760103-5.1622264-5.2034891-7.1428831-7.7822025-6.7185727 2.1545094-1.2010215 5.0320299-6.8432233.6566815-11.2787722-3.473075-3.30102214-7.9007715-2.10000066-9.4575588-.66018274.8393038-2.75758432-.536812-8.45783373-6.1700324-9.35952038-.3894136-.04342738-.7643041-.06681968-1.1216369-.06681968-4.3001318.00054149-6.2336521 3.14149967-6.8404784 4.68571656" fill="#fff"/><path d="m8.15791256 10.7391602c-2.45165274 2.2248579-3.34393967 7.2660038 1.0755254 10.2129616l17.63080674 12.1262721-8.5487124-19.6338795c-1.7912804-4.63319555-6.6917735-5.64352844-10.15761974-2.7053542" fill="#f37021"/><path d="m23.3283062 1.18164629c-2.8698967.05843721-7.1793997 3.47912777-5.2615495 8.70248143l8.8540658 20.89981108 3.1112394-21.98268827c.7200196-5.46219808-3.4099929-7.98356285-6.7037557-7.61960424" fill="#cc004c"/><path d="m31.4590823 7.90425679h1.6700611s.8919239 0 1.0132749.42144225c-.6572185.53770965-2.4461452.60504515-2.2087382 3.47730456l2.8077125 18.8853329 8.7722781-20.92358487c1.7943296-4.67180587-1.9719796-8.57347561-5.3129662-8.69277418-.15593-.01125867-.3126165-.02035221-.4745978-.02035221-2.9987619 0-6.4350571 2.18331553-6.2670244 6.85263155" fill="#6460aa"/><path d="m43.2319139 13.5724461-8.3370764 19.4103455 17.6924001-12.1977907c4.0783096-2.8908379 3.4205422-7.5125761 1.1376834-9.7969695-.9571177-1.07519383-2.7143489-1.9058133-4.575924-1.9058133-2.1991449-.00043404-4.5526882 1.1653629-5.9170831 4.490228" fill="#0089d0"/><path d="m50.5205378 23.5190147-16.5817233 11.5670274h20.4167601c4.1887201 0 6.880571-4.3134352 5.6838558-8.2714845-.8014222-2.4878087-3.1726392-4.440807-5.9248459-4.4436207-1.1583562.0004329-2.3869291.349001-3.5940467 1.1480778" fill="#0db14b"/><path d="m7.7036827 35.1816444h20.116585l-16.5866086-11.6010568c-3.83188014-2.4659315-8.14067281-1.0230577-9.69613807 3.0689558-1.31847192 4.6844013 1.97353583 8.532101 6.16616167 8.532101" fill="#fcb711"/><g fill="#fff"><path d="m56.251263 49.1186315v-2.4158736s1.1824325 1.0245769 2.4608052 1.0245769c.6678099 0 1.0210236-.3721981 1.0210236-.9767818 0-.9289867-.8773397-1.2234583-1.7413292-1.6830689-.9008722-.5120899-1.9140517-1.3822459-1.9140517-2.9712331 0-1.7664325 1.2604215-3.0051344 3.0230206-3.0051344 1.269925 0 2.0251522.5709208 2.0251522.5709208v2.2967035s-.992287-.8466553-2.0221352-.8466553c-.6665278 0-1.070276.3458393-1.070276.9259697 0 .7930646.7685019 1.1356487 1.5942511 1.5579443 1.3232503.6796903 2.073424 1.4547324 2.073424 3.0418143 0 1.7410263-1.1430608 3.2493495-3.0661635 3.2493495-1.34897.0001588-2.3837211-.7685319-2.3837211-.7685319z"/><path d="m12.2040887 45.1842724h1.7125924c.3937168.0261205 1.0916212.3882355 1.0916212 1.2456885 0 .896991-.7241522 1.2587885-1.1166621 1.2993587h-1.6876269zm-.0259461-3.9927931h1.4096869c.4817374.027629 1.0514954.4025265 1.0514954 1.0988894 0 .6831836-.4306749 1.1381894-.988214 1.219568h-1.4729683zm-1.9274019-1.6614738v9.8595971h4.5416962c1.0778939 0 2.3596606-1.1382688 2.3596606-2.6251557 0-1.5538952-.9637009-2.3170284-1.5735848-2.6250762 0 0 1.1165868-.6831835 1.0670328-2.1570499-.0509117-1.9827805-1.7897519-2.4522359-2.3859838-2.4522359z"/><path d="m1.39958093 39.1290668v10.2604563h1.97967116v-5.6789583l5.88674421 6.0538559v-10.2344152h-1.97816267v5.5335089z"/><path d="m17.5646705 44.3407927c.0496294 3.1393099 2.1763786 5.4869048 4.9105981 5.4869048.6483504 0 1.3312454-.1302058 2.0293006-.4153883v-2.0228744c-.5532399.3585424-1.1687806.5313032-1.7718762.5313032-1.6546662 0-3.215806-1.298406-3.1512424-3.6603712.111553-1.9159309 1.5902536-3.2388696 3.1842785-3.2388696.583636 0 1.1839409.1783185 1.7386893.567745v-1.9686484c-.6469173-.2781165-1.2898372-.4023677-1.9092999-.4023677-2.7272805-.0000794-4.9781787 2.4400093-5.030448 5.1225666"/><path d="m30.4416217 43.7320806 5.8868196 6.08212v-10.2824484h-1.9783135v5.5596294l-5.8881773-5.9623148v10.3084896h1.9796712z"/><path d="m37.1396336 39.4595832h5.1518063v1.7159379h-3.1643664v2.407458h3.1643664v1.6648083h-3.1820158v2.5259927h3.1655732v1.6999798h-5.1353637z"/><path d="m42.8601419 39.485148 4.5236696 10.4602904 1.9341147-4.5524397 1.9696397 4.5524397 4.42871-10.4254365h-2.1654422l-2.4264113 5.8635489-.8543352-2.2285837 1.5425097-3.6348858h-1.9341146l-.5220896 1.260297-.4953137-1.2951509h-2.1001997l1.6017935 3.6984009-.9106774 2.1999225-2.4946707-5.8984028z"/></g></g></svg>