<?xml version="1.0" encoding="UTF-8"?>
<svg width="116px" height="38px" viewBox="0 0 116 38" version="1.1" xmlns="http://www.w3.org/2000/svg" xmlns:xlink="http://www.w3.org/1999/xlink">
    <!-- Generator: Sketch 50.2 (55047) - http://www.bohemiancoding.com/sketch -->
    <title>Group</title>
    <desc>Created with Sketch.</desc>
    <defs>
        <path d="M27.3193359,15.0166016 L32.0361328,15.0166016 L32.0361328,16.0898438 L26,16.0898438 L26,6.13671875 L27.3193359,6.13671875 L27.3193359,15.0166016 Z M35.7664062,16.0898438 L34.4539062,16.0898438 L34.4539062,6.13671875 L35.7664062,6.13671875 L35.7664062,16.0898438 Z M42.2857422,14.3466797 L45.1294922,6.13671875 L46.565039,6.13671875 L42.8736328,16.0898438 L41.7115234,16.0898438 L38.0269531,6.13671875 L39.455664,6.13671875 L42.2857422,14.3466797 Z M54.3490234,11.4892578 L50.0355468,11.4892578 L50.0355468,15.0166016 L55.046289,15.0166016 L55.046289,16.0898438 L48.7230468,16.0898438 L48.7230468,6.13671875 L54.9779297,6.13671875 L54.9779297,7.21679688 L50.0355468,7.21679688 L50.0355468,10.4160156 L54.3490234,10.4160156 L54.3490234,11.4892578 Z M69.4453124,16.0898438 L68.1259765,16.0898438 L63.1152343,8.41992188 L63.1152343,16.0898438 L61.7958984,16.0898438 L61.7958984,6.13671875 L63.1152343,6.13671875 L68.1396484,13.8408203 L68.1396484,6.13671875 L69.4453124,6.13671875 L69.4453124,16.0898438 Z M80.2576171,11.4345703 C80.2576171,12.4098356 80.0935563,13.2609013 79.7654296,13.987793 C79.437303,14.7146846 78.9724639,15.2695293 78.3708984,15.6523438 C77.7693329,16.0351582 77.067517,16.2265625 76.2654296,16.2265625 C75.4815715,16.2265625 74.7865915,16.0340189 74.1804687,15.6489258 C73.5743459,15.2638327 73.1038102,14.7146846 72.7688476,14.0014648 C72.433885,13.2882451 72.2618489,12.4622443 72.2527343,11.5234375 L72.2527343,10.8056641 C72.2527343,9.84862803 72.4190738,9.00325888 72.7517577,8.26953125 C73.0844417,7.53580362 73.5549774,6.97412304 74.1633788,6.58447266 C74.7717803,6.19482227 75.4678997,6 76.2517577,6 C77.0492878,6 77.752243,6.19254365 78.3606445,6.57763672 C78.9690459,6.96272979 79.437303,7.52099244 79.7654296,8.25244141 C80.0935563,8.98389038 80.2576171,9.83495608 80.2576171,10.8056641 L80.2576171,11.4345703 Z M78.9519531,10.7919922 C78.9519531,9.61164774 78.7149763,8.70589508 78.2410156,8.07470703 C77.7670549,7.44351898 77.1039755,7.12792969 76.2517577,7.12792969 C75.4223265,7.12792969 74.769501,7.44351898 74.2932616,8.07470703 C73.8170223,8.70589508 73.5720703,9.58202564 73.5583984,10.703125 L73.5583984,11.4345703 C73.5583984,12.5784562 73.7987931,13.477373 74.2795898,14.1313477 C74.7603864,14.7853223 75.4223264,15.1123047 76.2654296,15.1123047 C77.1130901,15.1123047 77.7693335,14.8035513 78.2341796,14.1860352 C78.6990257,13.568519 78.9382811,12.683274 78.9519531,11.5302734 L78.9519531,10.7919922 Z M85.1978515,12.9521484 L85.3892577,14.2646484 L85.6695312,13.0820312 L87.6382812,6.13671875 L88.745703,6.13671875 L90.6666015,13.0820312 L90.940039,14.2851562 L91.151953,12.9453125 L92.6968749,6.13671875 L94.0162109,6.13671875 L91.6031249,16.0898438 L90.4068359,16.0898438 L88.3560546,8.83691406 L88.198828,8.078125 L88.0416015,8.83691406 L85.9156249,16.0898438 L84.7193359,16.0898438 L82.3130859,6.13671875 L83.6255859,6.13671875 L85.1978515,12.9521484 Z" id="path-1"></path>
        <filter x="-16.9%" y="-112.5%" width="136.8%" height="344.5%" filterUnits="objectBoundingBox" id="filter-2">
            <feOffset dx="1" dy="1" in="SourceAlpha" result="shadowOffsetOuter1"></feOffset>
            <feGaussianBlur stdDeviation="4" in="shadowOffsetOuter1" result="shadowBlurOuter1"></feGaussianBlur>
            <feColorMatrix values="0 0 0 0 0   0 0 0 0 0   0 0 0 0 0  0 0 0 0.5 0" type="matrix" in="shadowBlurOuter1"></feColorMatrix>
        </filter>
        <path d="M10.8056029,12.9557502 C10.8056029,13.8666478 10.0665728,14.6056779 9.15567521,14.6056779 C8.2447776,14.6056779 7.50574747,13.8666478 7.50574747,12.9557502 C7.50574747,12.0448526 8.2447776,11.3058224 9.15567521,11.3058224 C10.0665728,11.3058224 10.8056029,12.0448526 10.8056029,12.9557502 Z M15.2054103,14.0127351 C15.2140036,14.1674159 15.1624434,14.3135032 15.0593229,14.4252171 C14.9562024,14.5455243 14.8101151,14.6056779 14.6554343,14.6056779 L13.4953289,14.6056779 C13.2117476,14.6056779 12.9797265,14.3908436 12.9539464,14.1072622 C12.7047385,11.4862833 10.6251421,9.40668686 8.00416314,9.15747903 C7.72058181,9.13169891 7.50574747,8.89967782 7.50574747,8.61609649 L7.50574747,7.45599105 C7.50574747,7.30131032 7.56590108,7.15522297 7.68620831,7.05210248 C7.78073542,6.95757537 7.9182294,6.90601513 8.05572338,6.90601513 L8.09869025,6.90601513 C9.92907884,7.05210248 11.6563469,7.85128623 12.9539464,9.15747903 C14.2601392,10.4550784 15.0593229,12.1823465 15.2054103,14.0127351 Z M19.6052176,14.0299219 C19.6138109,14.1760092 19.5622507,14.3220966 19.4505368,14.4338104 C19.3474163,14.5455243 19.2099224,14.6056779 19.0552416,14.6056779 L17.8263892,14.6056779 C17.5342145,14.6056779 17.2936,14.3822502 17.2764133,14.0900755 C16.992832,9.09732541 13.0141,5.11859341 8.02134989,4.82641871 C7.72917518,4.80923196 7.50574747,4.5686175 7.50574747,4.28503617 L7.50574747,3.05618374 C7.50574747,2.90150301 7.56590108,2.76400904 7.67761494,2.66088855 C7.78073542,2.55776807 7.9182294,2.50620783 8.05572338,2.50620783 C8.06431675,2.50620783 8.07291013,2.50620783 8.0815035,2.50620783 C11.0891843,2.66088855 13.9164042,3.92411448 16.0475609,6.06386452 C18.1873109,8.19502118 19.4505368,11.0222411 19.6052176,14.0299219 Z" id="path-3"></path>
        <filter x="-99.2%" y="-90.9%" width="314.9%" height="314.9%" filterUnits="objectBoundingBox" id="filter-4">
            <feOffset dx="1" dy="2" in="SourceAlpha" result="shadowOffsetOuter1"></feOffset>
            <feGaussianBlur stdDeviation="4" in="shadowOffsetOuter1" result="shadowBlurOuter1"></feGaussianBlur>
            <feColorMatrix values="0 0 0 0 0   0 0 0 0 0   0 0 0 0 0  0 0 0 0.5 0" type="matrix" in="shadowBlurOuter1"></feColorMatrix>
        </filter>
        <rect id="path-5" x="0" y="0" width="100" height="22" rx="8"></rect>
        <filter x="-11.5%" y="-52.3%" width="125.0%" height="213.6%" filterUnits="objectBoundingBox" id="filter-6">
            <feOffset dx="1" dy="1" in="SourceAlpha" result="shadowOffsetOuter1"></feOffset>
            <feMorphology radius="1" operator="erode" in="SourceAlpha" result="shadowInner"></feMorphology>
            <feOffset dx="1" dy="1" in="shadowInner" result="shadowInner"></feOffset>
            <feComposite in="shadowOffsetOuter1" in2="shadowInner" operator="out" result="shadowOffsetOuter1"></feComposite>
            <feGaussianBlur stdDeviation="4" in="shadowOffsetOuter1" result="shadowBlurOuter1"></feGaussianBlur>
            <feColorMatrix values="0 0 0 0 0   0 0 0 0 0   0 0 0 0 0  0 0 0 0.5 0" type="matrix" in="shadowBlurOuter1"></feColorMatrix>
        </filter>
    </defs>
    <g id="Page-1" stroke="none" stroke-width="1" fill="none" fill-rule="evenodd">
        <g id="Artboard" transform="translate(-54.000000, -32.000000)">
            <g id="Group" transform="translate(61.000000, 39.000000)">
                <g id="LIVE-NOW">
                    <use fill="black" fill-opacity="1" filter="url(#filter-2)" xlink:href="#path-1"></use>
                    <use fill="#EA4335" fill-rule="evenodd" xlink:href="#path-1"></use>
                </g>
                <g id="rss---FontAwesome" transform="translate(13.555943, 8.555943) rotate(-45.000000) translate(-13.555943, -8.555943) ">
                    <use fill="black" fill-opacity="1" filter="url(#filter-4)" xlink:href="#path-3"></use>
                    <use fill="#EA4335" fill-rule="evenodd" xlink:href="#path-3"></use>
                </g>
                <g id="Rectangle-2">
                    <use fill="black" fill-opacity="1" filter="url(#filter-6)" xlink:href="#path-5"></use>
                    <rect stroke="#EA4335" stroke-width="1" stroke-linejoin="square" x="0.5" y="0.5" width="99" height="21" rx="8"></rect>
                </g>
            </g>
        </g>
    </g>
</svg>